<svg width="24" height="18" viewBox="0 0 24 18" fill="none" xmlns="http://www.w3.org/2000/svg">
<path fill-rule="evenodd" clip-rule="evenodd" d="M0.75 9C0.75 8.48223 1.16973 8.0625 1.6875 8.0625H22.3125C22.8303 8.0625 23.25 8.48223 23.25 9C23.25 9.51777 22.8303 9.9375 22.3125 9.9375H1.6875C1.16973 9.9375 0.75 9.51777 0.75 9Z" fill="#7871DE"/>
<path fill-rule="evenodd" clip-rule="evenodd" d="M0.75 1.5C0.75 0.982233 1.16973 0.5625 1.6875 0.5625H22.3125C22.8303 0.5625 23.25 0.982233 23.25 1.5C23.25 2.01777 22.8303 2.4375 22.3125 2.4375H1.6875C1.16973 2.4375 0.75 2.01777 0.75 1.5Z" fill="#7871DE"/>
<path fill-rule="evenodd" clip-rule="evenodd" d="M0.75 16.5C0.75 15.9822 1.16973 15.5625 1.6875 15.5625H22.3125C22.8303 15.5625 23.25 15.9822 23.25 16.5C23.25 17.0178 22.8303 17.4375 22.3125 17.4375H1.6875C1.16973 17.4375 0.75 17.0178 0.75 16.5Z" fill="#7871DE"/>
</svg>
