<svg width="14" height="10" viewBox="0 0 14 10" fill="none" xmlns="http://www.w3.org/2000/svg">
<path d="M7.58953 9.2C3.0796 9.2 0.507207 6.04685 0.400024 0.799999H2.65911C2.73332 4.65105 4.39878 6.28228 5.71795 6.61862V0.799999H7.84512V4.12132C9.14781 3.97838 10.5165 2.46486 10.9782 0.799999H13.1053C12.9314 1.66345 12.5845 2.48099 12.0866 3.2015C11.5886 3.92201 10.9503 4.52998 10.2114 4.98739C11.0361 5.40533 11.7646 5.9969 12.3487 6.72305C12.9328 7.44919 13.3593 8.29342 13.6 9.2H11.2585C11.0424 8.41256 10.6033 7.70768 9.99606 7.17369C9.38886 6.63971 8.64062 6.30036 7.84512 6.1982V9.2H7.58953V9.2Z" fill="white"/>
</svg>
